<?xml version="1.0" encoding="UTF-8" standalone="no"?>
<svg
   xmlns:dc="http://purl.org/dc/elements/1.1/"
   xmlns:cc="http://creativecommons.org/ns#"
   xmlns:rdf="http://www.w3.org/1999/02/22-rdf-syntax-ns#"
   xmlns:svg="http://www.w3.org/2000/svg"
   xmlns="http://www.w3.org/2000/svg"
   xmlns:sodipodi="http://sodipodi.sourceforge.net/DTD/sodipodi-0.dtd"
   xmlns:inkscape="http://www.inkscape.org/namespaces/inkscape"
   width="297mm"
   height="210mm"
   viewBox="0 0 297 210"
   version="1.1"
   id="svg8"
   inkscape:version="1.0.2-2 (e86c870879, 2021-01-15)"
   sodipodi:docname="fancyFringe.svg">
  <defs
     id="defs2">
    <inkscape:path-effect
       effect="powerstroke"
       id="path-effect14"
       is_visible="true"
       lpeversion="1"
       offset_points="0,0.1322915"
       sort_points="true"
       interpolator_type="CubicBezierJohan"
       interpolator_beta="0.2"
       start_linecap_type="zerowidth"
       linejoin_type="extrp_arc"
       miter_limit="4"
       scale_width="1"
       end_linecap_type="zerowidth" />
  </defs>
  <sodipodi:namedview
     id="base"
     pagecolor="#ffffff"
     bordercolor="#666666"
     borderopacity="1.0"
     inkscape:pageopacity="0.0"
     inkscape:pageshadow="2"
     inkscape:zoom="0.94"
     inkscape:cx="546.13562"
     inkscape:cy="378.18182"
     inkscape:document-units="mm"
     inkscape:current-layer="layer1"
     inkscape:document-rotation="0"
     showgrid="false"
     inkscape:window-width="1920"
     inkscape:window-height="1017"
     inkscape:window-x="-8"
     inkscape:window-y="-8"
     inkscape:window-maximized="1"
     inkscape:snap-global="false" />
  <metadata
     id="metadata5">
    <rdf:RDF>
      <cc:Work
         rdf:about="">
        <dc:format>image/svg+xml</dc:format>
        <dc:type
           rdf:resource="http://purl.org/dc/dcmitype/StillImage" />
        <dc:title />
      </cc:Work>
    </rdf:RDF>
  </metadata>
  <g
     inkscape:label="Layer 1"
     inkscape:groupmode="layer"
     id="layer1">
    <path
       id="path853"
       style="opacity:0.37;fill:#784421;stroke-width:0;stroke-dasharray:none"
       d="M 29.073007,-0.51226976 C 21.040465,-0.61036335 11.935461,1.9980533 5.0869545,1.6854875 -2.4055556,13.3874 1.5435076,13.332332 20.863388,6.4503643 29.987879,2.6870352 41.443224,6.516763 43.110177,17.796851 c 1.001648,4.865244 0.987405,9.774571 0.73648,14.699982 0.04962,-1.224494 -0.419171,-2.465375 -0.05601,-3.127984 h -5.457468 c -13.049206,-3.503034 -25.400695,0.56166 -36.393241,7.733454 -2.21799352,11.03028 12.45844,3.177258 19.298122,-0.159414 9.107222,-3.134437 3.672538,-1.100416 15.344832,-1.040072 5.776971,0.02987 7.077842,-1.507429 7.251834,-3.151316 -0.344705,6.558206 -1.087378,13.144017 -0.403133,19.697182 0.255269,10.144845 1.909329,20.180624 3.354556,30.163003 0.04574,3.966353 1.652193,5.989266 1.178181,13.063087 -0.244243,3.644925 0.335251,6.497407 1.149715,8.460537 -1.214198,-1.37746 -2.55262,-2.67478 -4.024917,-3.86771 -8.14796,-6.825016 -20.421472,-5.790171 -29.903595,-2.247327 -11.21496,0.08633 -13.0914825,14.919747 -3.80361,19.416267 7.354919,5.22524 20.972901,7.23438 26.142227,-1.72923 7.996881,-7.12056 -7.034831,-18.456305 -10.587103,-8.64523 3.523728,2.94094 8.772367,6.20378 1.35082,9.01847 -8.794907,4.44217 -22.5016399,-9.52755 -9.576053,-13.24777 8.616218,-3.712109 19.458563,-2.29225 25.605021,4.80377 8.509884,8.65475 9.476113,21.72414 4.732011,32.28203 -4.568181,12.11794 -10.370473,26.37219 -2.932141,38.57008 5.721673,9.05866 17.905557,13.50855 28.667559,10.82935 16.971374,-1.07049 32.090466,-14.05728 49.624136,-9.31104 10.77626,3.61733 15.12328,14.64269 19.49372,23.59598 1.22359,1.79115 3.74291,7.78748 5.47493,6.68771 1.73196,1.09932 4.25052,-4.89679 5.47398,-6.68771 4.37046,-8.95329 8.71746,-19.97865 19.49373,-23.59598 17.53368,-4.74624 32.65277,8.24055 49.62414,9.31104 10.762,2.6792 22.94588,-1.77069 28.66756,-10.82935 7.43834,-12.19789 1.63604,-26.45214 -2.93214,-38.57008 -4.74411,-10.55789 -3.77788,-23.62728 4.73202,-32.28203 6.14645,-7.09602 16.98879,-8.515879 25.60501,-4.80377 12.9256,3.72022 -0.78115,17.68994 -9.57605,13.24777 -7.42154,-2.81469 -2.17291,-6.07753 1.35083,-9.01847 -3.55227,-9.811056 -18.584,1.52467 -10.58712,8.64523 5.16932,8.96361 18.78732,6.95447 26.14223,1.72923 9.28787,-4.49652 7.41135,-19.32993 -3.8036,-19.416267 -9.48213,-3.542844 -21.75564,-4.577689 -29.9036,2.247327 -1.4723,1.19293 -2.81072,2.49025 -4.02492,3.86771 0.81447,-1.96313 1.39397,-4.815594 1.14972,-8.460537 -0.47402,-7.073821 1.13251,-9.096734 1.17819,-13.063087 1.44521,-9.982379 3.09929,-20.018164 3.35456,-30.163003 0.68424,-6.553165 -0.0585,-13.138976 -0.40314,-19.697182 0.17396,1.643887 1.47485,3.181185 7.25183,3.151316 11.6723,-0.06035 6.23761,-2.094365 15.34483,1.040072 6.83967,3.33667 21.51612,11.189693 19.29812,0.159414 -10.99254,-7.171794 -23.34402,-11.236488 -36.39325,-7.733454 h -5.45747 c 0.36319,0.662609 -0.10558,1.90349 -0.0559,3.127984 -0.25093,-4.925411 -0.26518,-9.834738 0.73649,-14.699982 1.66692,-11.2800859 13.12228,-15.1098214 22.24679,-11.3464867 19.31987,6.8819717 23.26894,6.9370357 15.77643,-4.7648768 -6.84851,0.3125658 -15.95353,-2.29585085 -23.98606,-2.19775726 -3.65117,0.0445983 -7.08092,0.64826601 -9.97643,2.33967036 -10.32735,6.8033821 -10.47582,21.2776124 -9.94431,32.7077774 2.83313,23.409921 -7.67444,47.601268 -3.39863,70.935692 -0.19071,1.36947 0.22892,1.92339 0.8779,1.73508 -6.97762,10.0705 -8.10078,23.41134 -3.6273,34.72763 5.4205,9.78963 9.58324,21.87833 4.06073,32.47741 -3.72672,8.65511 -14.57926,11.91155 -23.7124,9.63183 -16.5246,-3.35512 -32.4619,-13.46099 -49.98962,-9.45006 -13.8086,3.1291 -19.78615,16.38881 -24.59305,27.71351 -4.80693,-11.32478 -10.78523,-24.58438 -24.59397,-27.71351 -17.52772,-4.01093 -33.465006,6.09494 -49.989617,9.45006 -9.133137,2.27972 -19.985682,-0.97672 -23.712401,-9.63183 -5.522509,-10.59909 -1.359758,-22.68778 4.060734,-32.47741 4.473485,-11.31629 3.350323,-24.65713 -3.627298,-34.72763 0.648976,0.18833 1.068613,-0.36561 0.877898,-1.73508 C 56.668218,82.136446 46.160667,57.945099 48.993779,34.535178 49.525309,23.105013 49.376827,8.6307827 39.049485,1.8274006 36.153966,0.13599625 32.724207,-0.46767902 29.073048,-0.51226976 Z M 34.996059,14.858413 c -7.701318,-0.0433 -16.693822,1.006195 -27.9411825,4.292475 -1.7129493,0.50049 -4.8957991,4.564802 -6.0075352,5.706774 -3.4356847,6.912197 18.1730167,-2.77507 21.4258327,-2.510747 4.410925,-1.488322 15.459559,0.864811 19.693907,-1.277246 1.734986,-0.877687 0.674996,-3.381223 0.135907,-5.845776 -2.315681,-0.214743 -4.739825,-0.351047 -7.306935,-0.36548 z m 228.761031,0 c -2.56708,0.01448 -4.99124,0.150742 -7.30692,0.36548 -0.53904,2.464553 -1.59908,4.968084 0.13594,5.845776 4.23436,2.142057 15.28299,-0.211076 19.69392,1.277246 3.25281,-0.264323 24.86151,9.422944 21.42584,2.510747 -1.11176,-1.141972 -4.29462,-5.206284 -6.00755,-5.706774 -11.24735,-3.28628 -20.23988,-4.335778 -27.94119,-4.292475 z"
       sodipodi:nodetypes="sccccccccscccscccccccccccccccccccccccccccccscccsccccccccscccccccccccccccccssssccscssscsccsss" />
    <circle
       id="path851"
       style="fill:#784421;stroke:#000000;stroke-width:0.264583"
       cx="123.12293"
       cy="110.28671"
       r="0" />
  </g>
</svg>
